HIERARCHY
ROOT joint_Root
{
	OFFSET 0.0 0.0 0.0
	CHANNELS 6 Xposition Yposition Zposition Zrotation Xrotation Yrotation 
	JOINT Hips
	{
		OFFSET 4.5925 91.4895 -427.239
		CHANNELS 6 Xposition Yposition Zposition Zrotation Xrotation Yrotation 
		JOINT Spine
		{
			OFFSET 15.7357 0.0 0.0
			CHANNELS 6 Xposition Yposition Zposition Zrotation Xrotation Yrotation 
			JOINT Chest
			{
				OFFSET 8.98455 -0.406207 0.0
				CHANNELS 6 Xposition Yposition Zposition Zrotation Xrotation Yrotation 
				JOINT Neck
				{
					OFFSET 16.3773 0.0 0.0
					CHANNELS 6 Xposition Yposition Zposition Zrotation Xrotation Yrotation 
					JOINT Head
					{
						OFFSET 6.45672 0.0 0.0
						CHANNELS 6 Xposition Yposition Zposition Zrotation Xrotation Yrotation 
						End Site
						{
							OFFSET 0.0 0.0 0.0
						}
					}
				}
				JOINT Shoulder_L
				{
					OFFSET 12.9942 -0.242716 4.98039
					CHANNELS 6 Xposition Yposition Zposition Zrotation Xrotation Yrotation 
					JOINT UpperArm_L
					{
						OFFSET 5.34809 0.0 0.0
						CHANNELS 6 Xposition Yposition Zposition Zrotation Xrotation Yrotation 
						JOINT LowerArm_L
						{
							OFFSET 24.3286 1.87007e-05 0.0
							CHANNELS 6 Xposition Yposition Zposition Zrotation Xrotation Yrotation 
							JOINT Hand_L
							{
								OFFSET 22.2916 0.0 0.0
								CHANNELS 6 Xposition Yposition Zposition Zrotation Xrotation Yrotation 
								End Site
								{
									OFFSET 0.0 0.0 0.0
								}
							}
						}
					}
				}
				JOINT Shoulder_R
				{
					OFFSET 12.9945 -0.242716 -4.98039
					CHANNELS 6 Xposition Yposition Zposition Zrotation Xrotation Yrotation 
					JOINT UpperArm_R
					{
						OFFSET -5.34813 0.0 0.0
						CHANNELS 6 Xposition Yposition Zposition Zrotation Xrotation Yrotation 
						JOINT LowerArm_R
						{
							OFFSET -24.3289 0.000322201 0.0
							CHANNELS 6 Xposition Yposition Zposition Zrotation Xrotation Yrotation 
							JOINT Hand_R
							{
								OFFSET -22.2915 -0.000108084 0.0
								CHANNELS 6 Xposition Yposition Zposition Zrotation Xrotation Yrotation 
								End Site
								{
									OFFSET 0.0 0.0 0.0
								}
							}
						}
					}
				}
			}
		}
		JOINT UpperLeg_L
		{
			OFFSET -2.19248 -6.46944 0.0
			CHANNELS 6 Xposition Yposition Zposition Zrotation Xrotation Yrotation 
			JOINT LowerLeg_L
			{
				OFFSET 39.0811 0.0 -1.23785e-05
				CHANNELS 6 Xposition Yposition Zposition Zrotation Xrotation Yrotation 
				JOINT Foot_L
				{
					OFFSET 40.9854 0.0 -1.26872e-05
					CHANNELS 6 Xposition Yposition Zposition Zrotation Xrotation Yrotation 
					JOINT Toes_L
					{
						OFFSET 11.7543 0.0 0.0
						CHANNELS 6 Xposition Yposition Zposition Zrotation Xrotation Yrotation 
						End Site
						{
							OFFSET 0.0 0.0 0.0
						}
					}
				}
			}
		}
		JOINT UpperLeg_R
		{
			OFFSET -2.19251 6.46944 0.0
			CHANNELS 6 Xposition Yposition Zposition Zrotation Xrotation Yrotation 
			JOINT LowerLeg_R
			{
				OFFSET -39.0811 -0.00228153 -0.0401928
				CHANNELS 6 Xposition Yposition Zposition Zrotation Xrotation Yrotation 
				JOINT Foot_R
				{
					OFFSET -40.9854 0.0 0.0
					CHANNELS 6 Xposition Yposition Zposition Zrotation Xrotation Yrotation 
					JOINT Toes_R
					{
						OFFSET -11.7543 0.0 0.0
						CHANNELS 6 Xposition Yposition Zposition Zrotation Xrotation Yrotation 
						End Site
						{
							OFFSET 0.0 0.0 0.0
						}
					}
				}
			}
		}
	}
}
MOTION
Frames:	9
Frame Time:	0.0333333
0.000000 0.000000 0.000000 0.000000 0.000000 -0.000000 -2.687090 90.774300 -2.195330 88.272200 -2.094930 10.886400 15.735700 0.000005 -0.000001 89.486000 76.367200 -89.090300 8.984550 -0.406207 -0.000000 19.499300 -0.199084 0.827718 16.377300 -0.000001 -0.000001 4.313620 -3.134280 2.460500 6.456720 -0.000001 -0.000000 -10.279900 -2.851360 2.310020 12.994200 -0.242716 4.980390 -91.323700 6.984030 -79.240400 5.348090 -0.000007 -0.000001 -57.413900 34.080300 -28.570800 24.328600 0.000019 0.000005 10.036600 21.143600 -26.135600 22.291600 -0.000001 0.000005 11.711800 5.264930 1.035010 12.994500 -0.242716 -4.980390 89.270500 10.666700 -86.064900 -5.348130 -0.000001 -0.000004 -54.072700 36.438200 -26.539100 -24.328900 0.000322 -0.000009 2.186980 5.344550 -22.303000 -22.291500 -0.000108 -0.000004 15.766700 5.400910 -2.967050 -2.192480 -6.469440 -0.000000 -171.995000 -12.508100 -1.860700 39.081100 -0.000007 -0.000012 -0.157661 0.249998 32.237800 40.985400 -0.000006 -0.000013 -0.268883 7.691370 -68.998200 11.754300 -0.000000 0.000003 -0.000198 -0.001834 -16.646800 -2.192510 6.469440 -0.000001 176.146000 22.756300 -179.542000 -39.081100 -0.002282 -0.040193 -0.199325 0.345113 30.418600 -40.985400 0.000008 0.000006 5.687800 16.009000 -70.067600 -11.754300 -0.000006 -0.000006 -0.002455 -0.034274 -17.966800
0.000000 0.000000 0.000000 0.000000 0.000000 -0.000000 -2.694490 90.765300 -2.214030 88.252300 -2.060480 10.879100 15.735700 0.000005 -0.000001 89.519000 76.364300 -89.108200 8.984550 -0.406207 -0.000000 19.505400 -0.182212 0.855051 16.377300 -0.000001 -0.000001 4.382050 -3.105440 2.514780 6.456720 -0.000001 -0.000000 -10.369300 -2.824460 2.369270 12.994200 -0.242716 4.980390 -91.319100 6.941750 -79.213200 5.348090 -0.000007 -0.000001 -57.952900 32.961800 -28.211300 24.328600 0.000019 0.000005 10.031600 20.384100 -26.924600 22.291600 -0.000001 0.000005 12.129200 5.274210 0.784068 12.994500 -0.242716 -4.980390 89.278500 10.620200 -86.091100 -5.348130 -0.000001 -0.000004 -54.070200 36.401600 -26.599800 -24.328900 0.000322 -0.000009 2.146730 5.245680 -22.303600 -22.291500 -0.000108 -0.000004 15.736100 5.404450 -3.082690 -2.192480 -6.469440 -0.000000 -171.972000 -12.476800 -1.919270 39.081100 -0.000007 -0.000012 -0.161324 0.255220 32.297200 40.985400 -0.000006 -0.000013 -0.265224 7.726890 -69.010300 11.754300 -0.000000 0.000003 -0.000214 -0.001956 -16.651200 -2.192510 6.469440 -0.000001 176.181000 22.769500 -179.584000 -39.081100 -0.002282 -0.040193 -0.199087 0.344130 30.460700 -40.985400 0.000008 0.000006 5.687140 15.958900 -70.075300 -11.754300 -0.000006 -0.000006 -0.002440 -0.034095 -17.959600
0.000000 0.000000 0.000000 0.000000 0.000000 -0.000000 -2.698630 90.760200 -2.230450 88.270200 -2.007650 10.899200 15.735700 0.000005 -0.000001 89.551400 76.345600 -89.138700 8.984550 -0.406207 -0.000000 19.542700 -0.167052 0.856445 16.377300 -0.000001 -0.000001 4.452810 -3.112730 2.606370 6.456720 -0.000001 -0.000000 -10.490400 -2.818630 2.405370 12.994200 -0.242716 4.980390 -91.310600 6.887170 -79.198900 5.348090 -0.000007 -0.000001 -58.329200 31.816000 -27.890500 24.328600 0.000019 0.000005 10.187300 19.576400 -28.205500 22.291600 -0.000001 0.000005 12.435300 5.275500 0.749350 12.994500 -0.242716 -4.980390 89.273800 10.565000 -86.045300 -5.348130 -0.000001 -0.000004 -54.078200 36.351500 -26.723800 -24.328900 0.000322 -0.000009 2.159630 5.281330 -22.288300 -22.291500 -0.000108 -0.000004 15.699800 5.404000 -3.067950 -2.192480 -6.469440 -0.000000 -172.004000 -12.423800 -1.940630 39.081100 -0.000007 -0.000012 -0.159565 0.252198 32.321800 40.985400 -0.000006 -0.000013 -0.267956 7.706090 -69.001000 11.754300 -0.000000 0.000003 -0.000212 -0.001946 -16.650900 -2.192510 6.469440 -0.000001 176.164000 22.791900 -179.593000 -39.081100 -0.002282 -0.040193 -0.196344 0.338897 30.502600 -40.985400 0.000008 0.000006 5.692230 15.925300 -70.088400 -11.754300 -0.000006 -0.000006 -0.002293 -0.032323 -17.887500
0.000000 0.000000 0.000000 0.000000 0.000000 -0.000000 -2.707940 90.756900 -2.255460 88.280000 -1.946100 10.942300 15.735700 0.000005 -0.000001 89.562400 76.318600 -89.141200 8.984550 -0.406207 -0.000000 19.596700 -0.161223 0.872691 16.377300 -0.000001 -0.000001 4.539150 -3.086070 2.682950 6.456720 -0.000001 -0.000000 -10.603900 -2.793720 2.455480 12.994200 -0.242716 4.980390 -91.299800 6.807770 -79.164200 5.348090 -0.000007 -0.000001 -58.458000 30.744900 -27.750900 24.328600 0.000019 0.000005 10.436900 18.813700 -29.734500 22.291600 -0.000001 0.000005 12.750500 5.280750 0.605787 12.994500 -0.242716 -4.980390 89.270300 10.521800 -86.010400 -5.348130 -0.000001 -0.000004 -54.057700 36.279000 -26.810500 -24.328900 0.000322 -0.000009 2.180420 5.315510 -22.351800 -22.291500 -0.000108 -0.000004 15.728900 5.402840 -3.029680 -2.192480 -6.469440 -0.000000 -172.010000 -12.360700 -1.927550 39.081100 -0.000007 -0.000012 -0.162558 0.256807 32.334000 40.985400 -0.000006 -0.000013 -0.274384 7.708610 -68.989800 11.754300 -0.000000 0.000003 -0.000193 -0.001799 -16.645500 -2.192510 6.469440 -0.000001 176.155000 22.779800 -179.575000 -39.081100 -0.002282 -0.040193 -0.197747 0.340916 30.529300 -40.985400 0.000008 0.000006 5.683550 15.854400 -70.087600 -11.754300 -0.000006 -0.000006 -0.002450 -0.034209 -17.964200
0.000000 0.000000 0.000000 0.000000 0.000000 -0.000000 -2.729050 90.748100 -2.288070 88.274700 -1.860170 10.961900 15.735700 0.000005 -0.000001 89.535300 76.302100 -89.095300 8.984550 -0.406207 -0.000000 19.629700 -0.172063 0.912300 16.377300 -0.000001 -0.000001 4.634740 -3.058660 2.769430 6.456720 -0.000001 -0.000000 -10.665200 -2.747090 2.499550 12.994200 -0.242716 4.980390 -91.291700 6.753010 -79.145100 5.348090 -0.000007 -0.000001 -58.489800 29.554900 -27.669200 24.328600 0.000019 0.000005 10.931600 18.336300 -31.547400 22.291600 -0.000001 0.000005 13.117300 5.286710 0.442041 12.994500 -0.242716 -4.980390 89.267000 10.481400 -85.977100 -5.348130 -0.000001 -0.000004 -54.088200 36.145900 -26.821500 -24.328900 0.000322 -0.000009 2.162110 5.248690 -22.436100 -22.291500 -0.000108 -0.000004 15.810900 5.404830 -3.095100 -2.192480 -6.469440 -0.000000 -172.008000 -12.294000 -1.984970 39.081100 -0.000007 -0.000012 -0.159654 0.251663 32.391200 40.985400 -0.000006 -0.000013 -0.273734 7.740490 -68.979300 11.754300 -0.000000 0.000003 -0.000216 -0.001975 -16.651900 -2.192510 6.469440 -0.000001 176.165000 22.834200 -179.596000 -39.081100 -0.002282 -0.040193 -0.198738 0.341906 30.579900 -40.985400 0.000008 0.000006 5.698110 15.814300 -70.099400 -11.754300 -0.000006 -0.000006 -0.002341 -0.032911 -17.911400
0.000000 0.000000 0.000000 0.000000 0.000000 -0.000000 -2.740910 90.737000 -2.327010 88.287700 -1.791620 10.998400 15.735700 0.000005 -0.000001 89.566600 76.277000 -89.120000 8.984550 -0.406207 -0.000000 19.680000 -0.156900 0.923003 16.377300 -0.000001 -0.000001 4.723810 -3.046290 2.866690 6.456720 -0.000001 -0.000000 -10.675900 -2.716580 2.593500 12.994200 -0.242716 4.980390 -91.273700 6.667220 -79.159400 5.348090 -0.000007 -0.000001 -58.465000 28.264300 -27.684800 24.328600 0.000019 0.000005 11.502300 17.890600 -33.520800 22.291600 -0.000001 0.000005 13.514600 5.288070 0.404201 12.994500 -0.242716 -4.980390 89.264700 10.479100 -85.963500 -5.348130 -0.000001 -0.000004 -54.087800 35.952500 -26.821500 -24.328900 0.000322 -0.000009 2.124850 5.126910 -22.558000 -22.291500 -0.000108 -0.000004 15.669600 5.402980 -3.034450 -2.192480 -6.469440 -0.000000 -172.023000 -12.242300 -2.021360 39.081100 -0.000007 -0.000012 -0.160935 0.253111 32.449500 40.985400 -0.000006 -0.000013 -0.271237 7.754180 -68.972400 11.754300 -0.000000 0.000003 -0.000193 -0.001796 -16.645400 -2.192510 6.469440 -0.000001 176.146000 22.880500 -179.621000 -39.081100 -0.002282 -0.040193 -0.198884 0.341091 30.657900 -40.985400 0.000008 0.000006 5.714260 15.790600 -70.115500 -11.754300 -0.000006 -0.000006 -0.002351 -0.033029 -17.916200
0.000000 0.000000 0.000000 0.000000 0.000000 -0.000000 -2.760710 90.730600 -2.371510 88.292600 -1.711930 11.060300 15.735700 0.000005 -0.000001 89.577200 76.248900 -89.113000 8.984550 -0.406207 -0.000000 19.736300 -0.150266 0.957274 16.377300 -0.000001 -0.000001 4.833150 -3.035550 2.961670 6.456720 -0.000001 -0.000000 -10.683200 -2.695350 2.648150 12.994200 -0.242716 4.980390 -91.260500 6.589020 -79.145400 5.348090 -0.000007 -0.000001 -58.411300 26.877800 -27.806500 24.328600 0.000019 0.000005 12.082000 17.443500 -35.529100 22.291600 -0.000001 0.000005 13.761900 5.290420 0.339174 12.994500 -0.242716 -4.980390 89.263700 10.466100 -85.952900 -5.348130 -0.000001 -0.000004 -54.040100 35.874800 -26.846400 -24.328900 0.000322 -0.000009 2.159790 5.208610 -22.569200 -22.291500 -0.000108 -0.000004 15.687200 5.402310 -3.012770 -2.192480 -6.469440 -0.000000 -172.021000 -12.181900 -2.023170 39.081100 -0.000007 -0.000012 -0.158230 0.248505 32.486300 40.985400 -0.000006 -0.000013 -0.276338 7.768440 -68.952100 11.754300 -0.000000 0.000003 -0.000202 -0.001869 -16.648000 -2.192510 6.469440 -0.000001 176.141000 22.908500 -179.598000 -39.081100 -0.002282 -0.040193 -0.198774 0.340330 30.700400 -40.985400 0.000008 0.000006 5.723410 15.725300 -70.119000 -11.754300 -0.000006 -0.000006 -0.002370 -0.033261 -17.925700
0.000000 0.000000 0.000000 0.000000 0.000000 -0.000000 -2.781300 90.719400 -2.414580 88.304700 -1.637880 11.089200 15.735700 0.000005 -0.000001 89.606500 76.235700 -89.118900 8.984550 -0.406207 -0.000000 19.762700 -0.134119 1.001570 16.377300 -0.000001 -0.000001 4.934690 -3.054450 3.100960 6.456720 -0.000001 -0.000000 -10.600400 -2.668460 2.570090 12.994200 -0.242716 4.980390 -91.245400 6.539170 -79.192500 5.348090 -0.000007 -0.000001 -58.396600 25.286000 -27.909400 24.328600 0.000019 0.000005 12.873400 17.144100 -37.786200 22.291600 -0.000001 0.000005 13.950000 5.290370 0.340837 12.994500 -0.242716 -4.980390 89.271300 10.403400 -85.970800 -5.348130 -0.000001 -0.000004 -54.091800 35.744400 -26.816500 -24.328900 0.000322 -0.000009 2.148210 5.198300 -22.500200 -22.291500 -0.000108 -0.000004 15.675700 5.404490 -3.083830 -2.192480 -6.469440 -0.000000 -172.032000 -12.102000 -2.077760 39.081100 -0.000007 -0.000012 -0.161626 0.253274 32.544200 40.985400 -0.000006 -0.000013 -0.284502 7.783220 -68.935300 11.754300 -0.000000 0.000003 -0.000202 -0.001866 -16.647900 -2.192510 6.469440 -0.000001 176.138000 22.930300 -179.634000 -39.081100 -0.002282 -0.040193 -0.200202 0.341683 30.777800 -40.985400 0.000008 0.000006 5.732850 15.663200 -70.133400 -11.754300 -0.000006 -0.000006 -0.002457 -0.034297 -17.967800
0.000000 0.000000 0.000000 0.000000 0.000000 -0.000000 -2.802580 90.715300 -2.459860 88.297300 -1.563410 11.155200 15.735700 0.000005 -0.000001 89.598400 76.206300 -89.083000 8.984550 -0.406207 -0.000000 19.821600 -0.135154 1.057610 16.377300 -0.000001 -0.000001 5.018860 -3.095170 3.238370 6.456720 -0.000001 -0.000000 -10.535600 -2.663560 2.503620 12.994200 -0.242716 4.980390 -91.234100 6.499000 -79.224000 5.348090 -0.000007 -0.000001 -58.437300 23.522900 -27.969000 24.328600 0.000019 0.000005 13.534100 16.494900 -40.291200 22.291600 -0.000001 0.000005 14.106300 5.291360 0.313386 12.994500 -0.242716 -4.980390 89.278100 10.358100 -85.991200 -5.348130 -0.000001 -0.000004 -54.084400 35.673600 -26.859800 -24.328900 0.000322 -0.000009 2.150930 5.240860 -22.361500 -22.291500 -0.000108 -0.000004 15.676400 5.405420 -3.114540 -2.192480 -6.469440 -0.000000 -172.013000 -12.073900 -2.070970 39.081100 -0.000007 -0.000012 -0.160815 0.251685 32.576900 40.985400 -0.000006 -0.000013 -0.282778 7.807670 -68.912700 11.754300 -0.000000 0.000003 -0.000201 -0.001861 -16.647700 -2.192510 6.469440 -0.000001 176.141000 22.967600 -179.602000 -39.081100 -0.002282 -0.040193 -0.199150 0.339578 30.802900 -40.985400 0.000008 0.000006 5.746660 15.624800 -70.124500 -11.754300 -0.000006 -0.000006 -0.002384 -0.033423 -17.932200
